<svg width="19" height="20" viewBox="0 0 19 20" fill="none" xmlns="http://www.w3.org/2000/svg">
<path d="M7.125 15.3438C7.125 15.1863 7.18756 15.0353 7.29891 14.9239C7.41026 14.8126 7.56128 14.75 7.71875 14.75H11.2813C11.4387 14.75 11.5897 14.8126 11.7011 14.9239C11.8124 15.0353 11.875 15.1863 11.875 15.3438C11.875 15.5012 11.8124 15.6522 11.7011 15.7636C11.5897 15.8749 11.4387 15.9375 11.2813 15.9375H7.71875C7.56128 15.9375 7.41026 15.8749 7.29891 15.7636C7.18756 15.6522 7.125 15.5012 7.125 15.3438ZM3.5625 10.0736C3.5625 8.5275 5.02906 7.34594 6.56688 7.48963C8.51806 7.67159 10.4819 7.67159 12.4331 7.48963C13.9709 7.34594 15.4375 8.5275 15.4375 10.0736V11.4476C15.4431 11.7105 15.3546 11.9668 15.1881 12.1703C15.0216 12.3738 14.7879 12.5113 14.5291 12.5579C13.5256 12.7324 11.7503 12.9688 9.5 12.9688C7.24969 12.9688 5.47438 12.7313 4.47094 12.5579C4.21212 12.5113 3.97842 12.3738 3.81189 12.1703C3.64536 11.9668 3.55693 11.7105 3.5625 11.4476V10.0736ZM8.95613 9.09156C8.90985 9.08369 8.86236 9.08691 8.81757 9.10094C8.77277 9.11498 8.73195 9.13944 8.69844 9.17231L7.60594 10.2411C6.86287 10.1965 6.12174 10.124 5.38413 10.0238C5.30769 10.0162 5.23129 10.0385 5.17097 10.086C5.11065 10.1336 5.07111 10.2027 5.06066 10.2788C5.0502 10.3549 5.06965 10.432 5.11491 10.4941C5.16017 10.5562 5.22773 10.5983 5.30338 10.6116C5.9565 10.7018 6.76638 10.7885 7.70213 10.8408C7.74334 10.8431 7.78459 10.8368 7.82323 10.8223C7.86188 10.8077 7.89707 10.7853 7.92656 10.7564L8.82194 9.88244L9.82775 11.9131C9.84894 11.9557 9.88005 11.9925 9.91848 12.0206C9.9569 12.0487 10.0015 12.0671 10.0485 12.0743C10.0956 12.0815 10.1436 12.0773 10.1887 12.0621C10.2338 12.0468 10.2745 12.021 10.3075 11.9867L11.4143 10.8348C12.1776 10.7898 12.939 10.7153 13.6966 10.6116C13.7723 10.5983 13.8398 10.5562 13.8851 10.4941C13.9303 10.432 13.9498 10.3549 13.9393 10.2788C13.9289 10.2027 13.8893 10.1336 13.829 10.086C13.7687 10.0385 13.6923 10.0162 13.6159 10.0238C12.977 10.1116 12.1826 10.1959 11.2646 10.2482C11.1899 10.2523 11.1195 10.2846 11.0675 10.3384L10.1721 11.2706L9.17225 9.25187C9.1514 9.21002 9.12095 9.17368 9.08339 9.14583C9.04584 9.11797 9.00223 9.09937 8.95613 9.09156Z" fill="#FFFEFE"/>
<path d="M10.0938 2.71591C10.3201 2.5852 10.4971 2.38345 10.5971 2.14194C10.6971 1.90043 10.7147 1.63265 10.647 1.38015C10.5794 1.12765 10.4303 0.904529 10.2229 0.745393C10.0155 0.586257 9.76141 0.5 9.5 0.5C9.23859 0.5 8.98449 0.586257 8.7771 0.745393C8.56971 0.904529 8.42062 1.12765 8.35296 1.38015C8.28531 1.63265 8.30286 1.90043 8.40289 2.14194C8.50293 2.38345 8.67986 2.5852 8.90625 2.71591V4.06253H6.53125C5.114 4.06253 3.7548 4.62553 2.75265 5.62768C1.7505 6.62983 1.1875 7.98903 1.1875 9.40628V10C0.872555 10 0.57051 10.1251 0.347811 10.3478C0.125111 10.5705 0 10.8726 0 11.1875L0 13.5625C0 13.8775 0.125111 14.1795 0.347811 14.4022C0.57051 14.6249 0.872555 14.75 1.1875 14.75V15.9375C1.1875 16.5674 1.43772 17.1715 1.88312 17.6169C2.32852 18.0623 2.93261 18.3125 3.5625 18.3125H15.4375C16.0674 18.3125 16.6715 18.0623 17.1169 17.6169C17.5623 17.1715 17.8125 16.5674 17.8125 15.9375V14.75C18.1274 14.75 18.4295 14.6249 18.6522 14.4022C18.8749 14.1795 19 13.8775 19 13.5625V11.1875C19 10.8726 18.8749 10.5705 18.6522 10.3478C18.4295 10.1251 18.1274 10 17.8125 10V9.40628C17.8125 7.98903 17.2495 6.62983 16.2474 5.62768C15.2452 4.62553 13.886 4.06253 12.4688 4.06253H10.0938V2.71591ZM16.625 9.40628V15.9375C16.625 16.2525 16.4999 16.5545 16.2772 16.7772C16.0545 16.9999 15.7524 17.125 15.4375 17.125H3.5625C3.24756 17.125 2.94551 16.9999 2.72281 16.7772C2.50011 16.5545 2.375 16.2525 2.375 15.9375V9.40628C2.375 8.30397 2.81289 7.24682 3.59234 6.46737C4.37179 5.68792 5.42894 5.25003 6.53125 5.25003H12.4688C13.5711 5.25003 14.6282 5.68792 15.4077 6.46737C16.1871 7.24682 16.625 8.30397 16.625 9.40628Z" fill="#FFFEFE"/>
</svg>
