<svg width="19" height="18" viewBox="0 0 19 18" fill="none" xmlns="http://www.w3.org/2000/svg">
<path d="M7.125 14.9375C7.125 14.78 7.18756 14.629 7.29891 14.5176C7.41026 14.4063 7.56128 14.3437 7.71875 14.3437H11.2813C11.4387 14.3437 11.5898 14.4063 11.7011 14.5176C11.8124 14.629 11.875 14.78 11.875 14.9375C11.875 15.095 11.8124 15.246 11.7011 15.3573C11.5898 15.4687 11.4387 15.5312 11.2813 15.5312H7.71875C7.56128 15.5312 7.41026 15.4687 7.29891 15.3573C7.18756 15.246 7.125 15.095 7.125 14.9375ZM3.5625 9.66736C3.5625 8.12124 5.02907 6.93967 6.56688 7.08336C8.51806 7.26533 10.4819 7.26533 12.4331 7.08336C13.9709 6.93967 15.4375 8.12124 15.4375 9.66736V11.0413C15.4431 11.3042 15.3546 11.5605 15.1881 11.764C15.0216 11.9676 14.7879 12.105 14.5291 12.1516C13.5256 12.3262 11.7503 12.5625 9.5 12.5625C7.24969 12.5625 5.47438 12.325 4.47094 12.1516C4.21212 12.105 3.97842 11.9676 3.81189 11.764C3.64536 11.5605 3.55693 11.3042 3.5625 11.0413V9.66736ZM8.95613 8.6853C8.90985 8.67743 8.86237 8.68064 8.81757 8.69468C8.77278 8.70871 8.73195 8.73317 8.69844 8.76605L7.60594 9.8348C6.86288 9.79024 6.12175 9.71775 5.38413 9.61749C5.3077 9.60989 5.23129 9.63222 5.17097 9.67977C5.11066 9.72732 5.07112 9.79641 5.06066 9.8725C5.05021 9.9486 5.06965 10.0258 5.11492 10.0878C5.16018 10.1499 5.22773 10.192 5.30338 10.2053C5.9565 10.2955 6.76638 10.3822 7.70213 10.4345C7.74335 10.4368 7.78459 10.4305 7.82324 10.416C7.86188 10.4015 7.89707 10.3791 7.92657 10.3502L8.82194 9.47617L9.82775 11.5068C9.84894 11.5494 9.88006 11.5863 9.91848 11.6143C9.9569 11.6424 10.0015 11.6608 10.0485 11.668C10.0956 11.6752 10.1436 11.6711 10.1887 11.6558C10.2338 11.6406 10.2745 11.6147 10.3075 11.5804L11.4143 10.4285C12.1776 10.3836 12.939 10.3091 13.6966 10.2053C13.7723 10.192 13.8398 10.1499 13.8851 10.0878C13.9304 10.0258 13.9498 9.9486 13.9393 9.8725C13.9289 9.79641 13.8894 9.72732 13.829 9.67977C13.7687 9.63222 13.6923 9.60989 13.6159 9.61749C12.977 9.70536 12.1826 9.78967 11.2646 9.84192C11.1899 9.84608 11.1195 9.87831 11.0675 9.93217L10.1721 10.8644L9.17225 8.84561C9.1514 8.80376 9.12096 8.76742 9.0834 8.73956C9.04584 8.7117 9.00223 8.69311 8.95613 8.6853Z" fill="#A9ABAE"/>
<path d="M10.0938 2.30964C10.3201 2.17894 10.4971 1.97718 10.5971 1.73567C10.6971 1.49416 10.7147 1.22639 10.647 0.973887C10.5794 0.721385 10.4303 0.498264 10.2229 0.339128C10.0155 0.179992 9.76141 0.0937347 9.5 0.0937347C9.23859 0.0937347 8.98449 0.179992 8.7771 0.339128C8.56971 0.498264 8.42062 0.721385 8.35296 0.973887C8.28531 1.22639 8.30286 1.49416 8.40289 1.73567C8.50293 1.97718 8.67986 2.17894 8.90625 2.30964V3.65627H6.53125C5.114 3.65627 3.7548 4.21927 2.75265 5.22141C1.7505 6.22356 1.1875 7.58276 1.1875 9.00001V9.59377C0.872555 9.59377 0.57051 9.71888 0.347811 9.94158C0.125111 10.1643 0 10.4663 0 10.7813L0 13.1563C0 13.4712 0.125111 13.7733 0.347811 13.996C0.57051 14.2187 0.872555 14.3438 1.1875 14.3438V15.5313C1.1875 16.1612 1.43772 16.7652 1.88312 17.2106C2.32852 17.656 2.93261 17.9063 3.5625 17.9063H15.4375C16.0674 17.9063 16.6715 17.656 17.1169 17.2106C17.5623 16.7652 17.8125 16.1612 17.8125 15.5313V14.3438C18.1274 14.3438 18.4295 14.2187 18.6522 13.996C18.8749 13.7733 19 13.4712 19 13.1563V10.7813C19 10.4663 18.8749 10.1643 18.6522 9.94158C18.4295 9.71888 18.1274 9.59377 17.8125 9.59377V9.00001C17.8125 7.58276 17.2495 6.22356 16.2474 5.22141C15.2452 4.21927 13.886 3.65627 12.4688 3.65627H10.0938V2.30964ZM16.625 9.00001V15.5313C16.625 15.8462 16.4999 16.1483 16.2772 16.371C16.0545 16.5937 15.7524 16.7188 15.4375 16.7188H3.5625C3.24756 16.7188 2.94551 16.5937 2.72281 16.371C2.50011 16.1483 2.375 15.8462 2.375 15.5313V9.00001C2.375 7.89771 2.81289 6.84055 3.59234 6.0611C4.37179 5.28165 5.42894 4.84376 6.53125 4.84376H12.4688C13.5711 4.84376 14.6282 5.28165 15.4077 6.0611C16.1871 6.84055 16.625 7.89771 16.625 9.00001Z" fill="#A9ABAE"/>
</svg>
