<svg width="24" height="24" viewBox="0 0 24 24" fill="none" xmlns="http://www.w3.org/2000/svg">
<path d="M21.243 12.437C21.3209 12.3937 21.3858 12.3303 21.431 12.2535C21.4762 12.1767 21.5 12.0892 21.5 12C21.5 11.9109 21.4762 11.8234 21.431 11.7465C21.3858 11.6697 21.3209 11.6063 21.243 11.563L18.961 10.295C14.4639 7.79696 9.72328 5.76507 4.813 4.23102L4.148 4.02302C4.07323 3.99985 3.99406 3.99455 3.91688 4.00757C3.83969 4.02058 3.76663 4.05154 3.70359 4.09794C3.64055 4.14435 3.58929 4.2049 3.55393 4.27474C3.51856 4.34458 3.50009 4.42174 3.5 4.50002V10.25C3.49983 10.3782 3.54892 10.5016 3.63714 10.5947C3.72535 10.6877 3.84595 10.7433 3.974 10.75L4.984 10.803C7.44548 10.9321 9.89193 11.2659 12.298 11.801L12.536 11.854C12.589 11.865 12.612 11.887 12.625 11.904C12.6447 11.9321 12.6549 11.9657 12.654 12C12.654 12.04 12.641 12.074 12.625 12.096C12.612 12.113 12.589 12.135 12.536 12.146L12.298 12.199C9.89155 12.7341 7.4448 13.0682 4.983 13.198L3.973 13.251C3.8453 13.2579 3.7251 13.3135 3.63712 13.4063C3.54914 13.4991 3.50007 13.6221 3.5 13.75V19.5C3.5 19.5785 3.51848 19.6559 3.55395 19.726C3.58942 19.796 3.64089 19.8567 3.70418 19.9031C3.76748 19.9496 3.84082 19.9805 3.91827 19.9933C3.99572 20.0062 4.07511 20.0006 4.15 19.977L4.814 19.769C9.72393 18.2349 14.4642 16.203 18.961 13.705L21.243 12.437Z" fill="#A9ABAE"/>
</svg>
